<?xml version="1.0" encoding="utf-8"?>
<!-- Generator: Adobe Illustrator 15.0.0, SVG Export Plug-In . SVG Version: 6.00 Build 0)  -->
<!DOCTYPE svg PUBLIC "-//W3C//DTD SVG 1.1//EN" "http://www.w3.org/Graphics/SVG/1.1/DTD/svg11.dtd">
<svg version="1.1" id="Layer_1" xmlns="http://www.w3.org/2000/svg" xmlns:xlink="http://www.w3.org/1999/xlink" x="0px" y="0px"
	 width="181.5px" height="41.139px" viewBox="0 0 181.5 41.139" enable-background="new 0 0 181.5 41.139" xml:space="preserve">
<g>
	<path fill="#B1B3B5" d="M25.326,16.51c0,7.135-4.535,12.339-12.144,12.339c-7.057,0-12.103-4.218-12.103-12.024h5.125
		c0,4.731,2.287,7.137,6.978,7.137c4.732,0,6.94-3.273,6.94-7.452V5.548h-8.319V0.698h13.523V16.51z"/>
	<path fill="#B1B3B5" d="M33.564,20.294c0.316,2.404,2.406,4.14,5.797,4.14c1.774,0,4.101-0.669,5.204-1.814l3.075,3.038
		c-2.05,2.128-5.401,3.153-8.358,3.153c-6.703,0-10.685-4.141-10.685-10.37c0-5.914,4.021-10.172,10.33-10.172
		c6.505,0,10.566,4.021,9.817,12.025H33.564z M44.131,16.312c-0.315-2.523-2.287-3.785-5.046-3.785
		c-2.603,0-4.732,1.262-5.441,3.785H44.131z"/>
	<path fill="#B1B3B5" d="M66.761,28.298V18.126c0-2.957-1.616-5.204-4.692-5.204c-2.957,0-4.967,2.483-4.967,5.44v9.937h-4.771
		V8.821h4.298l0.315,2.642c1.972-1.932,3.942-2.917,6.387-2.917c4.573,0,8.24,3.43,8.24,9.541v10.212H66.761z"/>
	<path fill="#B1B3B5" d="M90.968,6.889l3.547,2.681l-2.169,2.76c1.5,1.695,2.051,3.627,2.051,5.756c0,2.405-0.905,5.796-4.1,7.255
		c3.232,1.616,4.021,3.942,4.021,6.426c0,5.362-4.1,8.675-9.737,8.675c-5.639,0-9.857-3.43-9.857-8.675h4.77
		c0,2.524,2.327,4.18,5.087,4.18c2.759,0,4.928-1.497,4.928-4.18c0-2.68-2.524-3.903-4.928-3.903c-6.071,0-9.857-3.705-9.857-9.777
		c0-6.071,4.416-9.857,9.857-9.857c1.537,0,3.115,0.197,4.455,1.104L90.968,6.889z M79.494,18.086c0,3.391,2.286,5.402,5.087,5.402
		c2.759,0,5.047-2.051,5.047-5.402c0-3.351-2.288-5.48-5.047-5.48C81.78,12.606,79.494,14.696,79.494,18.086"/>
	<path fill="#B1B3B5" d="M112.89,8.858l-0.124,2.074c-1.846-1.76-4.351-2.843-7.102-2.843c-5.694,0-10.304,4.616-10.304,10.31
		c0,3.978,2.249,7.428,5.552,9.145c1.554,0.908,3.438,1.358,5.511,1.346c1.813-0.036,4.237-0.811,5.629-2.407
		c0.246-0.19,0.483-0.396,0.709-0.617l0.206,2.434h4.533V8.858H112.89z M106.063,24.474c-3.191,0-5.757-2.209-5.757-5.917
		c0-3.705,2.565-5.875,5.757-5.875C113.635,12.682,113.635,24.474,106.063,24.474"/>
	<path fill="#4277BB" d="M147.153,26.794c0,1.308-1.108,2.416-2.574,2.416c-1.188,0-2.14-0.673-2.575-1.703l-1.98-4.673h-11.249
		l-1.98,4.673c-0.436,1.03-1.385,1.703-2.534,1.703c-1.464,0-2.613-1.108-2.613-2.416c0-0.555,0.158-1.069,0.356-1.505l9.821-22.141
		c0.556-1.347,1.387-1.98,2.577-1.98c1.186,0,2.02,0.633,2.613,1.98l9.823,22.141C147.036,25.725,147.153,26.24,147.153,26.794
		 M138.202,18.595l-3.801-8.951l-3.804,8.951H138.202z"/>
	<path fill="#4277BB" d="M171.233,10.318c0,5.069-3.959,8.913-10.139,8.913h-4.834v7.406c0,1.466-1.186,2.694-2.654,2.694
		c-1.504,0-2.692-1.229-2.692-2.694V4.258c0-1.705,1.229-2.932,2.933-2.932h7.248C167.274,1.325,171.233,5.327,171.233,10.318
		 M166.045,10.318c0-3.248-2.22-4.436-5.188-4.436h-4.597v8.793h4.597C163.825,14.675,166.045,13.605,166.045,10.318"/>
	<path fill="#4277BB" d="M180.422,3.941v22.656c0,1.465-1.229,2.733-2.694,2.733c-1.505,0-2.733-1.269-2.733-2.733V3.941
		c0-1.466,1.229-2.734,2.733-2.734C179.193,1.207,180.422,2.475,180.422,3.941"/>
</g>
</svg>
