<?xml version="1.0" encoding="utf-8"?>
<!-- Generator: Adobe Illustrator 15.0.0, SVG Export Plug-In . SVG Version: 6.00 Build 0)  -->
<!DOCTYPE svg PUBLIC "-//W3C//DTD SVG 1.1//EN" "http://www.w3.org/Graphics/SVG/1.1/DTD/svg11.dtd">
<svg version="1.1" id="Layer_1" xmlns="http://www.w3.org/2000/svg" xmlns:xlink="http://www.w3.org/1999/xlink" x="0px" y="0px"
	 width="181.5px" height="59.289px" viewBox="0 0 181.5 59.289" enable-background="new 0 0 181.5 59.289" xml:space="preserve">
<g>
	<path fill="#B1B3B5" d="M24.6,25.539c0,7.216-4.585,12.477-12.28,12.477c-7.135,0-12.237-4.265-12.237-12.158h5.182
		c0,4.783,2.312,7.214,7.055,7.214c4.785,0,7.018-3.307,7.018-7.532V14.456h-8.412V9.552H24.6V25.539z"/>
	<path fill="#B1B3B5" d="M32.929,29.367c0.319,2.431,2.432,4.183,5.86,4.183c1.794,0,4.146-0.677,5.262-1.833l3.109,3.07
		c-2.072,2.153-5.46,3.189-8.45,3.189c-6.778,0-10.805-4.186-10.805-10.484c0-5.98,4.067-10.285,10.445-10.285
		c6.578,0,10.683,4.066,9.926,12.16H32.929z M43.614,25.34c-0.319-2.552-2.312-3.828-5.104-3.828c-2.631,0-4.784,1.276-5.502,3.828
		H43.614z"/>
	<path fill="#B1B3B5" d="M66.494,37.458V27.174c0-2.991-1.635-5.263-4.743-5.263c-2.991,0-5.024,2.512-5.024,5.501v10.046h-4.823
		V17.765h4.345l0.319,2.67c1.993-1.953,3.986-2.949,6.458-2.949c4.625,0,8.333,3.468,8.333,9.647v10.324H66.494z"/>
	<path fill="#B1B3B5" d="M90.971,15.812l3.589,2.711l-2.194,2.79c1.517,1.715,2.074,3.668,2.074,5.821
		c0,2.432-0.918,5.858-4.147,7.335c3.269,1.633,4.066,3.986,4.066,6.497c0,5.423-4.146,8.771-9.846,8.771
		c-5.701,0-9.967-3.468-9.967-8.771h4.824c0,2.553,2.352,4.226,5.143,4.226c2.791,0,4.983-1.515,4.983-4.226
		c0-2.709-2.552-3.946-4.983-3.946c-6.139,0-9.967-3.747-9.967-9.886c0-6.139,4.464-9.967,9.967-9.967
		c1.555,0,3.149,0.199,4.504,1.116L90.971,15.812z M79.37,27.134c0,3.428,2.313,5.461,5.143,5.461c2.791,0,5.103-2.072,5.103-5.461
		c0-3.389-2.313-5.542-5.103-5.542C81.683,21.592,79.37,23.705,79.37,27.134"/>
	<path fill="#B1B3B5" d="M113.136,17.803l-0.125,2.097c-1.866-1.78-4.399-2.874-7.183-2.874c-5.756,0-10.418,4.667-10.418,10.424
		c0,4.022,2.277,7.511,5.615,9.246c1.571,0.919,3.476,1.374,5.573,1.36c1.833-0.036,4.283-0.817,5.69-2.433
		c0.249-0.191,0.488-0.397,0.718-0.624l0.206,2.461h4.585V17.803H113.136z M106.233,33.593c-3.229,0-5.819-2.236-5.819-5.983
		s2.591-5.94,5.819-5.94C113.891,21.669,113.891,33.593,106.233,33.593"/>
	<path fill="#FFFFFF" d="M147.781,35.939c0,1.319-1.121,2.44-2.603,2.44c-1.202,0-2.164-0.679-2.604-1.721l-2.003-4.726h-11.374
		l-2.003,4.726c-0.439,1.042-1.4,1.721-2.563,1.721c-1.481,0-2.644-1.121-2.644-2.44c0-0.562,0.16-1.083,0.361-1.524l9.932-22.385
		c0.562-1.362,1.401-2.003,2.604-2.003s2.043,0.641,2.644,2.003l9.932,22.385C147.66,34.856,147.781,35.378,147.781,35.939
		 M138.731,27.648l-3.846-9.051l-3.845,9.051H138.731z"/>
	<path fill="#FFFFFF" d="M172.128,19.278c0,5.126-4.004,9.012-10.252,9.012h-4.886v7.489c0,1.479-1.203,2.723-2.683,2.723
		c-1.522,0-2.725-1.243-2.725-2.723V13.151c0-1.723,1.242-2.964,2.964-2.964h7.329C168.124,10.187,172.128,14.232,172.128,19.278
		 M166.881,19.278c0-3.284-2.242-4.485-5.244-4.485h-4.646v8.891h4.646C164.639,23.684,166.881,22.603,166.881,19.278"/>
	<path fill="#FFFFFF" d="M181.418,12.831v22.905c0,1.482-1.241,2.766-2.724,2.766c-1.522,0-2.763-1.283-2.763-2.766V12.831
		c0-1.482,1.24-2.764,2.763-2.764C180.177,10.067,181.418,11.349,181.418,12.831"/>
</g>
</svg>
